<svg xmlns="http://www.w3.org/2000/svg" viewBox="0 0 72.4 43.5" enable-background="new 0 0 72.4 43.5"><path fill-rule="evenodd" clip-rule="evenodd" fill="#00B3B8" d="M54.4 24.3s-7-7.1-16.6-7.1c-9.4 0-18.7 7.1-18.7 7.1l-5.2-2.2v6.4c.8.3 1.4 1 1.4 2 0 .9-.6 1.7-1.4 2l1.5 4.3h-4.6l1.6-4.3c-.7-.3-1.3-1.1-1.3-1.9 0-.8.5-1.6 1.2-1.9v-7.1l-7.6-3.2 33.4-15 30.6 15.2-14.3 5.7zm-17-3.5c9.7 0 14.4 5.1 14.4 5.1v10.6s-4.9 4-15.2 4c-10.2 0-13.7-4-13.7-4V25.9c.1 0 4.8-5.1 14.5-5.1zm-.2 17.5c6.7 0 12.1-1.4 12.1-3 0-1.7-5.4-3-12.1-3-6.7 0-12.1 1.4-12.1 3s5.4 3 12.1 3z"/></svg>