<svg xmlns="http://www.w3.org/2000/svg" viewBox="0 0 32 32" enable-background="new 0 0 32 32"><path fill="#193549" d="M21.5 3.7c2.4 0 3.7.9 4.9 2 1-.1 2.4-.7 3.2-1 .2-.2.5-.3.8-.4-.5 1.2-1 2.2-2 2.9-.2.2-.4.4-.7.5 1.4 0 2.5-.6 3.5-.9-.5.9-1.3 1.8-2.1 2.4-.3.2-.6.5-1 .8 0 1.4 0 2.8-.3 4-1.5 7-5.6 11.7-12.1 13.8-2.4.8-6.1 1-8.8.4-1.3-.4-2.5-.7-3.7-1.2-.6-.2-1.2-.5-1.8-.9-.2-.1-.4-.2-.6-.4.6 0 1.3.2 2 .1.6-.1 1.2 0 1.8-.2 1.4-.5 2.7-1 3.8-1.6.5-.3 1.3-.6 1.7-1.1-.7 0-1.4-.1-1.9-.4-2-.7-3.2-2-3.9-4 .6 0 2.3.2 2.8-.1-.8 0-1.5-.5-2.1-.8-1.7-.9-3-2.6-3-5.2l.6.3c.5.1.9.2 1.4.3.2.1.6.1.8.1h-.1c-.3-.4-.8-.6-1.1-1-1-1.3-2-3.2-1.4-5.7.3-.5.5-1.1.8-1.5.1.2.4.4.5.7.6.7 1.2 1.2 1.8 1.8C7.7 9 9.7 10.1 13 10.9c.9.2 1.8.4 2.8.4-.3-.8-.2-2.2.1-2.9.5-2 1.8-3.4 3.5-4.2.4-.2.9-.3 1.4-.4.2 0 .4 0 .7-.1z"/></svg>