<svg xmlns="http://www.w3.org/2000/svg" viewBox="0 0 32 32" enable-background="new 0 0 32 32"><path d="M30.9 17l-5.7 5.8c-.3.3-.6.4-1 .4-.8 0-1.4-.6-1.4-1.4 0-.4.2-.7.4-1l4.7-4.7-4.7-4.7c-.3-.3-.4-.6-.4-1 0-.8.6-1.4 1.4-1.4.4 0 .8.2 1 .4l5.7 5.7c.3.3.5.6.5 1.1 0 .2-.2.6-.5.8zm-17.4 9.6c-.2.6-.7 1-1.4 1-.8 0-1.4-.6-1.4-1.4 0-.2 0-.4.1-.5l7.7-20.1c.2-.6.7-.9 1.4-.9.8 0 1.4.6 1.4 1.4 0 .2 0 .4-.1.5l-7.7 20zM8.9 11.3L4.2 16l4.7 4.7c.3.3.4.6.4 1 0 .8-.6 1.4-1.4 1.4-.4 0-.7-.2-1-.4L1.1 17c-.3-.3-.4-.6-.4-1s.2-.8.5-1.1l5.7-5.7c.3-.3.6-.4 1-.4.8 0 1.4.6 1.4 1.4 0 .5-.2.8-.4 1.1z"/></svg>