<svg xmlns="http://www.w3.org/2000/svg" viewBox="0 0 32 32" enable-background="new 0 0 32 32"><path fill-rule="evenodd" clip-rule="evenodd" d="M31.2 17l-5.9 5.9c-.3.3-.6.4-1 .4-.8 0-1.5-.7-1.5-1.5 0-.4.2-.8.4-1L28 16l-4.8-4.8c-.3-.3-.4-.6-.4-1.1 0-.8.7-1.5 1.5-1.5.4 0 .8.2 1.1.4l5.8 5.8c.3.3.5.7.5 1.1 0 .4-.2.8-.5 1.1zM24.9-40.7c-.2.5-.7.9-1.2.9-.7 0-1.3-.6-1.3-1.3 0-.2 0-.3.1-.5l7-18.3c.2-.5.7-.9 1.2-.9.7 0 1.3.6 1.3 1.3 0 .2 0 .3-.1.5l-7 18.3zM8.7 11.1l-4.8 4.8 4.8 4.8c.3.3.4.6.4 1 0 .8-.7 1.5-1.5 1.5-.4 0-.8-.2-1-.4L.8 17c-.3-.3-.4-.6-.4-1.1 0-.4.2-.8.5-1.1L6.6 9c.3-.3.6-.4 1.1-.4.8 0 1.5.7 1.5 1.5 0 .3-.2.7-.5 1zM21.3 8.5c-.5 1.6-1.9 5.9-3.1 9.4l-3.8-1.7c1.6-3.1 3.6-7 4.3-8.4 1.3-2.5 2.6-4.2 3.1-3.9.4.1.4 1.8-.5 4.6zM18 18.7c-.4 1.3-.8 2.5-1 3.2L12.5 20c.3-.7.9-1.8 1.6-3.1l3.9 1.8zm-1.3 4c.9 7.9-9 7-9 7s3.7-.9 2.4-4.2c-1.2-3.2 1.9-4.7 2.1-4.8l4.5 2c0-.1 0 0 0 0z"/></svg>