<svg xmlns="http://www.w3.org/2000/svg" viewBox="0 0 32 32" enable-background="new 0 0 32 32"><path fill-rule="evenodd" clip-rule="evenodd" d="M2.1 29.8h2v-2h-2v2zM4.2 7.5h-2v2h2v-2zM24.5 15v11.8h1v4.1h-4.1v-1H5.2v1H1.1v-4.1h1V10.6h-1V6.5h4.1v1h13.6l-2.2 2H5.2v1h-1v16.2h1v1h16.2v-1h1v-9.3l2.1-2.4zm-2.1 12.8v2h2v-2h-2zM28.9 6.1c-1.2 1.5-4.6 5.6-7.3 8.9l-3.4-3.5c3.1-2.7 6.9-6.1 8.3-7.3C29 2 31.1.7 31.6 1.3c.3.2-.5 2.1-2.7 4.8zM21 15.7c-1 1.3-1.9 2.4-2.5 3l-4-3.9c.7-.6 1.7-1.6 3-2.7l3.5 3.6zm-3 3.8c-2.3 9-12.7 3.8-12.7 3.8s4.4.6 4.4-3.5c0-3.9 4-4.3 4.3-4.3l4 4z"/></svg>