<svg xmlns="http://www.w3.org/2000/svg" viewBox="0 0 32 32" enable-background="new 0 0 32 32"><path fill-rule="evenodd" clip-rule="evenodd" d="M30.8 17.4l-14.2 5.9c-.2.1-.4.1-.6.1-.2 0-.4 0-.6-.1L1.2 17.4c-.5-.2-.9-.7-.9-1.4 0-.8.7-1.5 1.5-1.5.2 0 .4 0 .6.1L16 20.3l13.7-5.7c.2-.1.4-.1.6-.1.8 0 1.5.7 1.5 1.5-.1.6-.5 1.1-1 1.4zm0-6.4l-14.2 5.9c-.2 0-.4.1-.6.1-.2 0-.4 0-.6-.1L1.2 11c-.5-.2-.9-.7-.9-1.4 0-.6.4-1.1.9-1.4l14.2-5.9c.2-.1.4-.1.6-.1.2 0 .4 0 .6.1l14.2 5.9c.5.2.9.7.9 1.4 0 .6-.4 1.2-.9 1.4zm-29 9.9c.2 0 .4 0 .6.1L16 26.7 29.7 21c.2-.1.4-.1.6-.1.8 0 1.5.7 1.5 1.5 0 .6-.4 1.1-.9 1.4l-14.2 5.9c-.2.1-.4.1-.6.1-.2 0-.4 0-.6-.1l-14.3-6c-.5-.2-.9-.7-.9-1.4s.6-1.4 1.5-1.4z"/></svg>