<svg xmlns="http://www.w3.org/2000/svg" viewBox="0 0 32 32" enable-background="new 0 0 32 32"><path fill="#193549" d="M16.3 1.8C7.9 1.8 1 8.6 1 17c0 6.7 4.4 12.5 10.4 14.5.8.1 1.1-.4 1.1-.8v-2.6c-4.2.9-5.2-2-5.2-2-.7-1.8-1.7-2.2-1.7-2.2-1.4-1 .1-1 .1-1C7.2 23 8 24.4 8 24.4c1.4 2.4 3.6 1.6 4.4 1.2.1-1 .6-1.6.9-2-3.4-.4-6.9-1.7-6.9-7.6 0-1.6.6-3 1.6-4.1 0-.3-.6-1.9.3-4 0 0 1.3-.4 4.2 1.6 1.2-.4 2.5-.5 3.8-.5s2.6.1 3.8.5c2.9-1.9 4.2-1.6 4.2-1.6.9 2.1.3 3.7.1 4.1 1 1.1 1.5 2.4 1.5 4.1 0 5.9-3.5 7.1-6.9 7.5.5.5 1 1.4 1 2.8v4.2c0 .4.2.9 1 .8 6-2 10.4-7.8 10.4-14.5.1-8.3-6.7-15.1-15.1-15.1z"/></svg>