<svg xmlns="http://www.w3.org/2000/svg" viewBox="0 0 64 64" enable-background="new 0 0 64 64"><path fill="#fff" d="M32.6 3.6C15.8 3.6 2.1 17.2 2.1 34.1 2.1 47.5 10.9 59 23 63c1.5.3 2.1-.7 2.1-1.5v-5.2c-8.5 1.8-10.3-4.1-10.3-4.1-1.4-3.5-3.4-4.5-3.4-4.5-2.8-1.9.2-1.9.2-1.9 3.1.2 4.7 3.1 4.7 3.1 2.7 4.7 7.1 3.3 8.9 2.5.3-2 1.1-3.3 1.9-4.1-6.8-.8-13.9-3.4-13.9-15.1 0-3.3 1.2-6 3.1-8.2-.3-.8-1.4-3.9.3-8.1 0 0 2.6-.8 8.4 3.1 2.4-.7 5-1 7.6-1s5.2.3 7.6 1c5.8-3.9 8.4-3.1 8.4-3.1 1.7 4.2.6 7.3.3 8.1 2 2.1 3.1 4.9 3.1 8.2 0 11.7-7.1 14.3-13.9 15 1.1.9 2.1 2.8 2.1 5.6v8.4c0 .8.5 1.8 2.1 1.5 12.1-4 20.8-15.5 20.8-28.9 0-16.6-13.7-30.2-30.5-30.2z"/></svg>