<svg xmlns="http://www.w3.org/2000/svg" viewBox="0 0 32 32" enable-background="new 0 0 32 32"><path fill="#193549" d="M26.2 29.8H5.8c-1.9 0-3.5-1.6-3.5-3.5V5.8c0-1.9 1.6-3.5 3.5-3.5h20.5c1.9 0 3.5 1.6 3.5 3.5v20.5c0 1.9-1.6 3.5-3.6 3.5zM16 10.9c-2.2 0-3.8 1.3-4.8 3.2v2.1c0 2.9 2.2 5.1 5.1 5.1s5.1-2.2 5.1-5.1v-2.1c-1.6-2.3-3.2-3.2-5.4-3.2zm10.6-4.2c0-.6-.6-1.3-1.3-1.3h-2.9c-.6 0-1.3.6-1.3 1.3v2.9c0 .6.6 1.3 1.3 1.3H25c.6 0 1.3-.6 1.3-1.3V6.7h.3zm0 7.1H24c.3.6.3 1.6.3 2.2 0 4.5-3.8 8.3-8.3 8.3S7.7 20.5 7.7 16c0-.6 0-1.6.3-2.2H5.4v11.5c0 .6.6 1.3 1.3 1.3H25c.6 0 1.3-.6 1.3-1.3V13.8h.3z"/></svg>