<svg xmlns="http://www.w3.org/2000/svg" viewBox="0 0 10 10" enable-background="new 0 0 10 10"><path fill-rule="evenodd" clip-rule="evenodd" fill="#fff" d="M8.2 9.3H1.8C1.2 9.3.7 8.8.7 8.2V1.8c0-.6.5-1.1 1.1-1.1h6.4c.6 0 1.1.5 1.1 1.1v6.4c0 .6-.5 1.1-1.1 1.1zM5 3.4c-.7 0-1.2.4-1.5 1v.7c0 .9.7 1.6 1.6 1.6.9 0 1.6-.7 1.6-1.6v-.7c-.5-.7-1-1-1.7-1zm3.3-1.3c0-.2-.2-.4-.4-.4H7c-.2 0-.4.2-.4.4V3c0 .2.2.4.4.4h.8c.2 0 .4-.2.4-.4v-.9zm0 2.2h-.8c.1.2.1.5.1.7 0 1.4-1.2 2.6-2.6 2.6S2.4 6.4 2.4 5c0-.2 0-.5.1-.7h-.8v3.6c0 .2.2.4.4.4h5.7c.2 0 .4-.2.4-.4V4.3z"/></svg>