<svg xmlns="http://www.w3.org/2000/svg" viewBox="0 0 32 32" enable-background="new 0 0 32 32"><path fill-rule="evenodd" clip-rule="evenodd" fill="#E1EFFF" d="M30.6 25.6l-14 5.8c-.2.1-.4.1-.6.1-.2 0-.4 0-.6-.1l-14-5.8c-.5-.2-.9-.7-.9-1.3V2C.5 1.2 1.1.5 2 .5c.2 0 .4 0 .6.1L16 6.2 29.5.6c.2-.1.4-.1.6-.1.8 0 1.5.6 1.5 1.5v22.3c-.1.5-.5 1.1-1 1.3zM14.5 8.7L3.4 4.1v19.1l11.1 4.6V8.7zm14.1-4.6L17.5 8.7v19.1l11.1-4.6V4.1zm-8.8 6.7l5.3-2.4c.2-.1.4-.1.6-.1.8 0 1.5.6 1.5 1.5 0 .6-.3 1.1-.9 1.3L21 13.5c-.2.1-.4.1-.6.1-.8 0-1.5-.6-1.5-1.5 0-.6.4-1.1.9-1.3zm0 5.3l5.3-2.4c.2-.1.4-.1.6-.1.8 0 1.5.6 1.5 1.5 0 .6-.3 1.1-.9 1.3L21 18.8c-.2.1-.4.1-.6.1-.8 0-1.5-.6-1.5-1.5 0-.5.4-1 .9-1.3zm0 5.4l5.3-2.4c.2-.1.4-.1.6-.1.8 0 1.5.6 1.5 1.5 0 .6-.3 1.1-.9 1.3L21 24.1c-.2.1-.4.1-.6.1-.8 0-1.5-.6-1.5-1.5 0-.5.4-1 .9-1.2zM6.3 8.3c.2 0 .4 0 .6.1l5.3 2.4c.5.2.9.7.9 1.3 0 .8-.6 1.5-1.5 1.5-.2 0-.4 0-.6-.1L5.7 11c-.5-.2-.9-.7-.9-1.3.1-.8.7-1.4 1.5-1.4zm0 5.3c.2 0 .4 0 .6.1l5.3 2.4c.5.2.9.7.9 1.3 0 .8-.6 1.5-1.5 1.5-.2 0-.4 0-.6-.1l-5.3-2.4c-.5-.2-.9-.7-.9-1.3.1-.9.7-1.5 1.5-1.5zm0 5.3c.2 0 .4 0 .6.1l5.3 2.4c.5.2.9.7.9 1.3 0 .8-.6 1.5-1.5 1.5-.2 0-.4 0-.6-.1l-5.3-2.4c-.5-.2-.9-.7-.9-1.3.1-.8.7-1.5 1.5-1.5z"/></svg>