<svg xmlns="http://www.w3.org/2000/svg" viewBox="0 0 64 64" enable-background="new 0 0 64 64"><path fill="#00B3B8" d="M42.9 7.4c4.8-.1 7.4 1.7 9.8 3.9 2.1-.2 4.8-1.3 6.4-2.1.5-.3 1-.6 1.5-.8-.9 2.5-2.1 4.4-4 5.8-.4.3-.8.8-1.4 1 2.7 0 4.9-1.2 7-1.9-1.1 1.8-2.6 3.5-4.2 4.8-.6.5-1.3 1-1.9 1.5 0 2.9 0 5.6-.6 8-3.1 14-11.3 23.4-24.3 27.5-4.7 1.5-12.2 2.1-17.6.7-2.7-.7-5-1.4-7.3-2.4-1.2-.5-2.4-1.1-3.5-1.8-.4-.2-.7-.4-1.1-.7 1.2 0 2.6.4 4 .2 1.2-.2 2.4-.1 3.5-.4 2.8-.6 5.3-1.4 7.5-2.7 1-.6 2.6-1.3 3.4-2.2-1.4 0-2.7-.3-3.7-.7-4-1.4-6.4-4-7.9-7.9 1.2.1 4.7.5 5.5-.2-1.5-.1-3-1-4.1-1.6-3.2-2-5.9-5.4-5.8-10.6.4.2.8.4 1.3.6.8.2 1.6.4 2.6.6.4.1 1.2.3 1.7.2h-.1c-.6-.8-1.6-1.2-2.2-2-2.1-2.6-4-6.5-2.8-11.3.3-1.2.8-2.3 1.3-3.2H6c.2.5.8.9 1.1 1.3 1.1 1.3 2.4 2.5 3.7 3.5 4.5 3.5 8.6 5.7 15.2 7.3 1.7.4 3.6.7 5.6.7-.6-1.6-.4-4.3.1-5.8 1.1-4 3.5-6.8 7-8.3.8-.4 1.8-.6 2.8-.8.4-.1.9-.1 1.4-.2z"/></svg>