<?xml version="1.0" encoding="utf-8"?>
<!-- Generator: Adobe Illustrator 18.1.1, SVG Export Plug-In . SVG Version: 6.00 Build 0)  -->
<!DOCTYPE svg PUBLIC "-//W3C//DTD SVG 1.1//EN" "http://www.w3.org/Graphics/SVG/1.1/DTD/svg11.dtd">
<svg version="1.1" id="Layer_1" xmlns="http://www.w3.org/2000/svg" xmlns:xlink="http://www.w3.org/1999/xlink" x="0px" y="0px"
	 viewBox="0 0 32 32" enable-background="new 0 0 32 32" xml:space="preserve">
<path id="CODE_2_" d="M30.9,17L30.9,17l-5.7,5.8l0,0c-0.3,0.3-0.6,0.4-1,0.4c-0.8,0-1.4-0.6-1.4-1.4c0-0.4,0.2-0.7,0.4-1l0,0
	l4.7-4.7l-4.7-4.7l0,0c-0.3-0.3-0.4-0.6-0.4-1c0-0.8,0.6-1.4,1.4-1.4c0.4,0,0.8,0.2,1,0.4l0,0l5.7,5.7c0.3,0.3,0.5,0.6,0.5,1.1
	C31.4,16.4,31.2,16.8,30.9,17z M13.5,26.6c-0.2,0.6-0.7,1-1.4,1c-0.8,0-1.4-0.6-1.4-1.4c0-0.2,0-0.4,0.1-0.5l7.7-20.1
	c0.2-0.6,0.7-0.9,1.4-0.9c0.8,0,1.4,0.6,1.4,1.4c0,0.2,0,0.4-0.1,0.5L13.5,26.6z M8.9,11.3L4.2,16l4.7,4.7l0,0
	c0.3,0.3,0.4,0.6,0.4,1c0,0.8-0.6,1.4-1.4,1.4c-0.4,0-0.7-0.2-1-0.4l0,0L1.1,17l0,0c-0.3-0.3-0.4-0.6-0.4-1s0.2-0.8,0.5-1.1l5.7-5.7
	l0,0c0.3-0.3,0.6-0.4,1-0.4c0.8,0,1.4,0.6,1.4,1.4C9.3,10.7,9.1,11,8.9,11.3L8.9,11.3z"/>
</svg>
