<?xml version="1.0" encoding="utf-8"?>
<!-- Generator: Adobe Illustrator 18.1.0, SVG Export Plug-In . SVG Version: 6.00 Build 0)  -->
<!DOCTYPE svg PUBLIC "-//W3C//DTD SVG 1.1//EN" "http://www.w3.org/Graphics/SVG/1.1/DTD/svg11.dtd">
<svg version="1.1" id="Layer_1" xmlns="http://www.w3.org/2000/svg" xmlns:xlink="http://www.w3.org/1999/xlink" x="0px" y="0px"
	 viewBox="0 0 51.9 48.9" enable-background="new 0 0 51.9 48.9" xml:space="preserve">
<path id="SUITCASE_2_" fill-rule="evenodd" clip-rule="evenodd" fill="#00B3B8" d="M47.7,46.1H44v-18V13.9h3.8c1.2,0,2.2,1,2.2,2.2
	v14.2v9v4.5C50,45.1,49,46.1,47.7,46.1z M10.2,46.1v-18v-0.7V13.9h4.5c0-6.2,5-11.2,11.3-11.2s11.3,5,11.3,11.2h4.5v14.2v18H10.2z
	 M26,7.1c-3.7,0-6.8,3-6.8,6.7h13.5C32.7,10.1,29.7,7.1,26,7.1z M2,43.9v-4.5v-9V16.1c0-1.2,1-2.2,2.2-2.2H8v13.5v0.7v18H4.2
	C3,46.1,2,45.1,2,43.9z"/>
</svg>
