<?xml version="1.0" encoding="utf-8"?>
<!-- Generator: Adobe Illustrator 18.1.0, SVG Export Plug-In . SVG Version: 6.00 Build 0)  -->
<!DOCTYPE svg PUBLIC "-//W3C//DTD SVG 1.1//EN" "http://www.w3.org/Graphics/SVG/1.1/DTD/svg11.dtd">
<svg version="1.1" id="Layer_1" xmlns="http://www.w3.org/2000/svg" xmlns:xlink="http://www.w3.org/1999/xlink" x="0px" y="0px"
	 viewBox="0 0 32 32" enable-background="new 0 0 32 32" xml:space="preserve">
<path fill-rule="evenodd" clip-rule="evenodd" d="M2.1,29.8h2v-2h-2V29.8z M4.2,7.5h-2v2h2V7.5z M24.5,15v11.8h1v4.1h-4.1v-1H5.2v1
	H1.1v-4.1h1V10.6h-1V6.5h4.1v1h13.6l-2.2,2H5.2v1h-1v16.2h1v1h16.2v-1h1v-9.3L24.5,15z M22.4,27.8v2h2v-2H22.4z"/>
<path fill-rule="evenodd" clip-rule="evenodd" d="M28.9,6.1c-1.2,1.5-4.6,5.6-7.3,8.9l-3.4-3.5c3.1-2.7,6.9-6.1,8.3-7.3
	C29,2,31.1,0.7,31.6,1.3C31.9,1.5,31.1,3.4,28.9,6.1z M21,15.7c-1,1.3-1.9,2.4-2.5,3l-4-3.9c0.7-0.6,1.7-1.6,3-2.7L21,15.7z
	 M18,19.5L18,19.5c-2.3,9-12.7,3.8-12.7,3.8s4.4,0.6,4.4-3.5c0-3.9,4-4.3,4.3-4.3L18,19.5C18,19.5,18,19.5,18,19.5z"/>
</svg>
