<?xml version="1.0" encoding="utf-8"?>
<!-- Generator: Adobe Illustrator 18.1.0, SVG Export Plug-In . SVG Version: 6.00 Build 0)  -->
<!DOCTYPE svg PUBLIC "-//W3C//DTD SVG 1.1//EN" "http://www.w3.org/Graphics/SVG/1.1/DTD/svg11.dtd">
<svg version="1.1" id="Layer_1" xmlns="http://www.w3.org/2000/svg" xmlns:xlink="http://www.w3.org/1999/xlink" x="0px" y="0px"
	 viewBox="0 0 32 32" enable-background="new 0 0 32 32" xml:space="preserve">
<path id="ARROW__x2F__DOWN_2_" fill-rule="evenodd" clip-rule="evenodd" d="M4,7.6l12,12L28.2,7.5l0,0c0.4-0.4,1-0.6,1.6-0.6
	c1.3,0,2.3,1,2.3,2.3c0,0.6-0.2,1.2-0.6,1.6l0,0L17.7,24.5l0,0c-0.4,0.4-1,0.7-1.7,0.7c0,0,0,0,0,0s0,0,0,0c-0.6,0-1.2-0.3-1.7-0.7
	l0,0L0.6,10.7l0,0c-0.4-0.4-0.6-1-0.6-1.6c0-1.3,1-2.3,2.3-2.3C2.9,6.8,3.6,7.1,4,7.6z"/>
</svg>
