<?xml version="1.0" encoding="utf-8"?>
<!-- Generator: Adobe Illustrator 18.1.1, SVG Export Plug-In . SVG Version: 6.00 Build 0)  -->
<!DOCTYPE svg PUBLIC "-//W3C//DTD SVG 1.1//EN" "http://www.w3.org/Graphics/SVG/1.1/DTD/svg11.dtd">
<svg version="1.1" id="Layer_1" xmlns="http://www.w3.org/2000/svg" xmlns:xlink="http://www.w3.org/1999/xlink" x="0px" y="0px"
	 viewBox="0 0 32 32" enable-background="new 0 0 32 32" xml:space="preserve">
<path id="MAIL_2_" fill="#193549" d="M21.4,16.8l9-8.6c0.3,0,0.3,0.3,0.3,0.6v17.6c0,0.3,0,0.6-0.3,1L21.4,16.8z M1.6,7.9
	c0.3-0.3,0.6-0.3,1-0.3h26.9c0.3,0,0.6,0,1,0.3L16,19.1L1.6,7.9z M1.6,27.4c-0.3,0-0.6-0.3-0.6-1V8.8c0-0.3,0-0.6,0.3-1l9,9
	L1.6,27.4z M16,21.9l3.8-3.5l10.6,9.3c-0.3,0.3-0.6,0.3-1,0.3H2.6c-0.3,0-0.6,0-1-0.3l10.6-9.3L16,21.9z"/>
</svg>
