<?xml version="1.0" encoding="utf-8"?>
<!-- Generator: Adobe Illustrator 18.1.0, SVG Export Plug-In . SVG Version: 6.00 Build 0)  -->
<!DOCTYPE svg PUBLIC "-//W3C//DTD SVG 1.1//EN" "http://www.w3.org/Graphics/SVG/1.1/DTD/svg11.dtd">
<svg version="1.1" id="Layer_1" xmlns="http://www.w3.org/2000/svg" xmlns:xlink="http://www.w3.org/1999/xlink" x="0px" y="0px"
	 viewBox="0 1.3 10 7.1" enable-background="new 0 1.3 10 7.1" xml:space="preserve">
<path id="MAIL_2_" fill="#00B3B8" d="M6.7,4.7l2.8-2.7C9.6,2,9.6,2.1,9.6,2.2v5.5c0,0.1,0,0.2-0.1,0.3L6.7,4.7z M0.5,1.9
	c0.1-0.1,0.2-0.1,0.3-0.1h8.4c0.1,0,0.2,0,0.3,0.1L5,5.4L0.5,1.9z M0.5,8C0.4,8,0.3,7.9,0.3,7.7V2.2c0-0.1,0-0.2,0.1-0.3l2.8,2.8
	L0.5,8z M5,6.3l1.2-1.1l3.3,2.9C9.4,8.2,9.3,8.2,9.2,8.2H0.8c-0.1,0-0.2,0-0.3-0.1l3.3-2.9L5,6.3z"/>
</svg>
