<?xml version="1.0" encoding="utf-8"?>
<!-- Generator: Adobe Illustrator 18.1.0, SVG Export Plug-In . SVG Version: 6.00 Build 0)  -->
<!DOCTYPE svg PUBLIC "-//W3C//DTD SVG 1.1//EN" "http://www.w3.org/Graphics/SVG/1.1/DTD/svg11.dtd">
<svg version="1.1" id="Layer_1" xmlns="http://www.w3.org/2000/svg" xmlns:xlink="http://www.w3.org/1999/xlink" x="0px" y="0px"
	 viewBox="0 0 64 64" enable-background="new 0 0 64 64" xml:space="preserve">
<path id="MAIL_2_" fill="#FFFFFF" d="M42.8,29.8l18.1-17.5c0.5,0.5,0.8,1.2,0.8,2v35.3c0,0.7-0.3,1.4-0.8,1.9L42.8,29.8z M3.2,12.2
	c0.5-0.5,1.1-0.7,1.8-0.7h54c0.7,0,1.4,0.3,1.9,0.7L32,34.7L3.2,12.2z M3,51.5c-0.5-0.5-0.8-1.2-0.8-1.9V14.3c0-0.8,0.3-1.5,0.8-2
	l18.1,17.6L3,51.5z M32,40.3l7.6-7.3l21.3,18.7c-0.5,0.5-1.2,0.8-1.9,0.8H5c-0.7,0-1.4-0.3-1.9-0.8L24.4,33L32,40.3z"/>
</svg>
