<?xml version="1.0" encoding="utf-8"?>
<!-- Generator: Adobe Illustrator 18.1.0, SVG Export Plug-In . SVG Version: 6.00 Build 0)  -->
<!DOCTYPE svg PUBLIC "-//W3C//DTD SVG 1.1//EN" "http://www.w3.org/Graphics/SVG/1.1/DTD/svg11.dtd">
<svg version="1.1" id="Layer_1" xmlns="http://www.w3.org/2000/svg" xmlns:xlink="http://www.w3.org/1999/xlink" x="0px" y="0px"
	 viewBox="0 0 32 32" enable-background="new 0 0 32 32" xml:space="preserve">
<path id="LAYERS_2_" fill-rule="evenodd" clip-rule="evenodd" d="M30.8,17.4L30.8,17.4l-14.2,5.9c0,0,0,0,0,0l0,0l0,0
	c-0.2,0.1-0.4,0.1-0.6,0.1c-0.2,0-0.4,0-0.6-0.1l0,0l0,0c0,0,0,0,0,0L1.2,17.4l0,0c-0.5-0.2-0.9-0.7-0.9-1.4c0-0.8,0.7-1.5,1.5-1.5
	c0.2,0,0.4,0,0.6,0.1l0,0l0,0c0,0,0,0,0,0L16,20.3l13.7-5.7c0,0,0,0,0,0l0,0l0,0c0.2-0.1,0.4-0.1,0.6-0.1c0.8,0,1.5,0.7,1.5,1.5
	C31.7,16.6,31.3,17.1,30.8,17.4z M30.8,11L30.8,11l-14.2,5.9c0,0,0,0,0,0l0,0l0,0C16.4,16.9,16.2,17,16,17c-0.2,0-0.4,0-0.6-0.1l0,0
	l0,0c0,0,0,0,0,0L1.2,11l0,0c-0.5-0.2-0.9-0.7-0.9-1.4c0-0.6,0.4-1.1,0.9-1.4l0,0l14.2-5.9c0,0,0,0,0,0l0,0l0,0
	c0.2-0.1,0.4-0.1,0.6-0.1c0.2,0,0.4,0,0.6,0.1l0,0l0,0c0,0,0,0,0,0l14.2,5.9l0,0c0.5,0.2,0.9,0.7,0.9,1.4
	C31.7,10.2,31.3,10.8,30.8,11z M1.8,20.9c0.2,0,0.4,0,0.6,0.1l0,0l0,0c0,0,0,0,0,0L16,26.7L29.7,21c0,0,0,0,0,0l0,0l0,0
	c0.2-0.1,0.4-0.1,0.6-0.1c0.8,0,1.5,0.7,1.5,1.5c0,0.6-0.4,1.1-0.9,1.4l0,0l-14.2,5.9c0,0,0,0,0,0l0,0l0,0c-0.2,0.1-0.4,0.1-0.6,0.1
	c-0.2,0-0.4,0-0.6-0.1l0,0l0,0c0,0,0,0,0,0L1.2,23.7l0,0c-0.5-0.2-0.9-0.7-0.9-1.4C0.3,21.6,0.9,20.9,1.8,20.9z"/>
</svg>
