<?xml version="1.0" encoding="utf-8"?>
<!-- Generator: Adobe Illustrator 18.1.1, SVG Export Plug-In . SVG Version: 6.00 Build 0)  -->
<!DOCTYPE svg PUBLIC "-//W3C//DTD SVG 1.1//EN" "http://www.w3.org/Graphics/SVG/1.1/DTD/svg11.dtd">
<svg version="1.1" id="Layer_1" xmlns="http://www.w3.org/2000/svg" xmlns:xlink="http://www.w3.org/1999/xlink" x="0px" y="0px"
	 viewBox="0 0 32 32" enable-background="new 0 0 32 32" xml:space="preserve">
<path id="CIRCLE__x2F__RIGHT_2_" fill-rule="evenodd" clip-rule="evenodd" d="M16,32C7.2,32,0,24.8,0,16C0,7.2,7.2,0,16,0
	s16,7.2,16,16C32,24.8,24.8,32,16,32z M16,3C8.8,3,3,8.8,3,16c0,7.2,5.8,13,13,13s13-5.8,13-13C29,8.8,23.2,3,16,3z M23.5,17.1
	L23.5,17.1l-5,4.5l0,0c-0.3,0.2-0.6,0.4-1,0.4c-0.8,0-1.5-0.7-1.5-1.5c0-0.4,0.2-0.8,0.5-1.1l0,0l2.1-1.9H9.5C8.7,17.5,8,16.8,8,16
	c0-0.8,0.7-1.5,1.5-1.5h9.1l-2.1-1.9l0,0c-0.3-0.3-0.5-0.7-0.5-1.1c0-0.8,0.7-1.5,1.5-1.5c0.4,0,0.7,0.1,1,0.4l0,0l5,4.5l0,0
	c0.3,0.3,0.5,0.7,0.5,1.1C24,16.4,23.8,16.8,23.5,17.1z"/>
</svg>
