<?xml version="1.0" encoding="utf-8"?>
<!-- Generator: Adobe Illustrator 18.1.0, SVG Export Plug-In . SVG Version: 6.00 Build 0)  -->
<!DOCTYPE svg PUBLIC "-//W3C//DTD SVG 1.1//EN" "http://www.w3.org/Graphics/SVG/1.1/DTD/svg11.dtd">
<svg version="1.1" id="Layer_1" xmlns="http://www.w3.org/2000/svg" xmlns:xlink="http://www.w3.org/1999/xlink" x="0px" y="0px"
	 viewBox="0 0 64 64" enable-background="new 0 0 64 64" xml:space="preserve">
<path fill="#00B3B8" d="M32.6,3.6C15.8,3.6,2.1,17.2,2.1,34.1C2.1,47.5,10.9,59,23,63c1.5,0.3,2.1-0.7,2.1-1.5c0-0.7,0-2.6,0-5.2
	c-8.5,1.8-10.3-4.1-10.3-4.1c-1.4-3.5-3.4-4.5-3.4-4.5c-2.8-1.9,0.2-1.9,0.2-1.9c3.1,0.2,4.7,3.1,4.7,3.1c2.7,4.7,7.1,3.3,8.9,2.5
	c0.3-2,1.1-3.3,1.9-4.1c-6.8-0.8-13.9-3.4-13.9-15.1c0-3.3,1.2-6,3.1-8.2c-0.3-0.8-1.4-3.9,0.3-8.1c0,0,2.6-0.8,8.4,3.1
	c2.4-0.7,5-1,7.6-1s5.2,0.3,7.6,1c5.8-3.9,8.4-3.1,8.4-3.1c1.7,4.2,0.6,7.3,0.3,8.1c2,2.1,3.1,4.9,3.1,8.2c0,11.7-7.1,14.3-13.9,15
	c1.1,0.9,2.1,2.8,2.1,5.6c0,4.1,0,7.4,0,8.4c0,0.8,0.5,1.8,2.1,1.5c12.1-4,20.8-15.5,20.8-28.9C63.1,17.2,49.4,3.6,32.6,3.6z"/>
</svg>
