<?xml version="1.0" encoding="utf-8"?>
<!-- Generator: Adobe Illustrator 18.1.1, SVG Export Plug-In . SVG Version: 6.00 Build 0)  -->
<!DOCTYPE svg PUBLIC "-//W3C//DTD SVG 1.1//EN" "http://www.w3.org/Graphics/SVG/1.1/DTD/svg11.dtd">
<svg version="1.1" id="Layer_1" xmlns="http://www.w3.org/2000/svg" xmlns:xlink="http://www.w3.org/1999/xlink" x="0px" y="0px"
	 viewBox="0 0 32 32" enable-background="new 0 0 32 32" xml:space="preserve">
<path fill="#193549" d="M16.3,1.8C7.9,1.8,1,8.6,1,17c0,6.7,4.4,12.5,10.4,14.5c0.8,0.1,1.1-0.4,1.1-0.8c0-0.4,0-1.3,0-2.6
	c-4.2,0.9-5.2-2-5.2-2c-0.7-1.8-1.7-2.2-1.7-2.2c-1.4-1,0.1-1,0.1-1c1.5,0.1,2.3,1.5,2.3,1.5c1.4,2.4,3.6,1.6,4.4,1.2
	c0.1-1,0.6-1.6,0.9-2c-3.4-0.4-6.9-1.7-6.9-7.6c0-1.6,0.6-3,1.6-4.1C8,11.6,7.4,10,8.3,7.9c0,0,1.3-0.4,4.2,1.6
	C13.7,9.1,15,9,16.3,9s2.6,0.1,3.8,0.5c2.9-1.9,4.2-1.6,4.2-1.6c0.9,2.1,0.3,3.7,0.1,4.1c1,1.1,1.5,2.4,1.5,4.1
	c0,5.9-3.5,7.1-6.9,7.5c0.5,0.5,1,1.4,1,2.8c0,2,0,3.7,0,4.2c0,0.4,0.2,0.9,1,0.8c6-2,10.4-7.8,10.4-14.5
	C31.5,8.6,24.7,1.8,16.3,1.8z"/>
</svg>
