<?xml version="1.0" encoding="utf-8"?>
<!-- Generator: Adobe Illustrator 18.1.0, SVG Export Plug-In . SVG Version: 6.00 Build 0)  -->
<!DOCTYPE svg PUBLIC "-//W3C//DTD SVG 1.1//EN" "http://www.w3.org/Graphics/SVG/1.1/DTD/svg11.dtd">
<svg version="1.1" id="Layer_1" xmlns="http://www.w3.org/2000/svg" xmlns:xlink="http://www.w3.org/1999/xlink" x="0px" y="0px"
	 viewBox="0 0 72.4 43.5" enable-background="new 0 0 72.4 43.5" xml:space="preserve">
<g>
	<path fill-rule="evenodd" clip-rule="evenodd" fill="#00B3B8" d="M54.4,24.3c0,0-7-7.1-16.6-7.1c-9.4,0-18.7,7.1-18.7,7.1l-5.2-2.2
		v6.4c0.8,0.3,1.4,1,1.4,2c0,0.9-0.6,1.7-1.4,2l1.5,4.3h-4.6l1.6-4.3c-0.7-0.3-1.3-1.1-1.3-1.9c0-0.8,0.5-1.6,1.2-1.9v-7.1l-7.6-3.2
		l33.4-15l30.6,15.2L54.4,24.3z M37.4,20.8c9.7,0,14.4,5.1,14.4,5.1v10.6c0,0-4.9,4-15.2,4c-10.2,0-13.7-4-13.7-4V25.9
		C23,25.9,27.7,20.8,37.4,20.8z M37.2,38.3c6.7,0,12.1-1.4,12.1-3c0-1.7-5.4-3-12.1-3c-6.7,0-12.1,1.4-12.1,3
		C25.1,36.9,30.5,38.3,37.2,38.3z"/>
</g>
</svg>
