<?xml version="1.0" encoding="utf-8"?>
<!-- Generator: Adobe Illustrator 18.1.0, SVG Export Plug-In . SVG Version: 6.00 Build 0)  -->
<!DOCTYPE svg PUBLIC "-//W3C//DTD SVG 1.1//EN" "http://www.w3.org/Graphics/SVG/1.1/DTD/svg11.dtd">
<svg version="1.1" id="Layer_1" xmlns="http://www.w3.org/2000/svg" xmlns:xlink="http://www.w3.org/1999/xlink" x="0px" y="0px"
	 viewBox="0 0 10 10" enable-background="new 0 0 10 10" xml:space="preserve">
<path id="instagram_2_" fill="#00B3B8" d="M8.2,9.3H1.8c-0.6,0-1.1-0.5-1.1-1.1V1.8c0-0.6,0.5-1.1,1.1-1.1h6.4
	c0.6,0,1.1,0.5,1.1,1.1v6.4C9.3,8.8,8.8,9.3,8.2,9.3z M5,3.4c-0.7,0-1.2,0.4-1.5,1l0,0l0,0v0.1c0,0,0,0,0,0.1v0.1c0,0,0,0,0,0.1v0.1
	l0,0c0,0.1,0,0.1,0,0.2c0,0.9,0.7,1.6,1.6,1.6S6.7,6,6.7,5.1c0-0.1,0-0.1,0-0.2l0,0V4.8c0,0,0,0,0-0.1V4.6c0,0,0,0,0-0.1V4.4l0,0
	l0,0C6.2,3.7,5.7,3.4,5,3.4z M8.3,2.1c0-0.2-0.2-0.4-0.4-0.4H7c-0.2,0-0.4,0.2-0.4,0.4V3c0,0.2,0.2,0.4,0.4,0.4h0.8
	C8,3.4,8.2,3.2,8.2,3V2.1H8.3z M8.3,4.3H7.5C7.6,4.5,7.6,4.8,7.6,5c0,1.4-1.2,2.6-2.6,2.6S2.4,6.4,2.4,5c0-0.2,0-0.5,0.1-0.7H1.7
	v3.6c0,0.2,0.2,0.4,0.4,0.4h5.7c0.2,0,0.4-0.2,0.4-0.4V4.3H8.3z"/>
</svg>
