<?xml version="1.0" encoding="utf-8"?>
<!-- Generator: Adobe Illustrator 18.1.1, SVG Export Plug-In . SVG Version: 6.00 Build 0)  -->
<!DOCTYPE svg PUBLIC "-//W3C//DTD SVG 1.1//EN" "http://www.w3.org/Graphics/SVG/1.1/DTD/svg11.dtd">
<svg version="1.1" id="Layer_1" xmlns="http://www.w3.org/2000/svg" xmlns:xlink="http://www.w3.org/1999/xlink" x="0px" y="0px"
	 viewBox="0 0 32 32" enable-background="new 0 0 32 32" xml:space="preserve">
<path id="instagram_2_" fill="#193549" d="M26.2,29.8H5.8c-1.9,0-3.5-1.6-3.5-3.5V5.8c0-1.9,1.6-3.5,3.5-3.5h20.5
	c1.9,0,3.5,1.6,3.5,3.5v20.5C29.8,28.2,28.2,29.8,26.2,29.8z M16,10.9c-2.2,0-3.8,1.3-4.8,3.2l0,0l0,0v0.3c0,0,0,0,0,0.3V15
	c0,0,0,0,0,0.3v0.3l0,0c0,0.3,0,0.3,0,0.6c0,2.9,2.2,5.1,5.1,5.1s5.1-2.2,5.1-5.1c0-0.3,0-0.3,0-0.6l0,0v-0.3c0,0,0,0,0-0.3v-0.3
	c0,0,0,0,0-0.3v-0.3l0,0l0,0C19.8,11.8,18.2,10.9,16,10.9z M26.6,6.7c0-0.6-0.6-1.3-1.3-1.3h-2.9c-0.6,0-1.3,0.6-1.3,1.3v2.9
	c0,0.6,0.6,1.3,1.3,1.3H25c0.6,0,1.3-0.6,1.3-1.3V6.7H26.6z M26.6,13.8H24c0.3,0.6,0.3,1.6,0.3,2.2c0,4.5-3.8,8.3-8.3,8.3
	S7.7,20.5,7.7,16c0-0.6,0-1.6,0.3-2.2H5.4v11.5c0,0.6,0.6,1.3,1.3,1.3H25c0.6,0,1.3-0.6,1.3-1.3V13.8H26.6z"/>
</svg>
