<?xml version="1.0" encoding="utf-8"?>
<!-- Generator: Adobe Illustrator 18.1.0, SVG Export Plug-In . SVG Version: 6.00 Build 0)  -->
<!DOCTYPE svg PUBLIC "-//W3C//DTD SVG 1.1//EN" "http://www.w3.org/Graphics/SVG/1.1/DTD/svg11.dtd">
<svg version="1.1" id="Layer_1" xmlns="http://www.w3.org/2000/svg" xmlns:xlink="http://www.w3.org/1999/xlink" x="0px" y="0px"
	 viewBox="0 0 10 10" enable-background="new 0 0 10 10" xml:space="preserve">
<path id="instagram_2_" fill-rule="evenodd" clip-rule="evenodd" fill="#FFFFFF" d="M8.2,9.3H1.8c-0.6,0-1.1-0.5-1.1-1.1V1.8
	c0-0.6,0.5-1.1,1.1-1.1h6.4c0.6,0,1.1,0.5,1.1,1.1v6.4C9.3,8.8,8.8,9.3,8.2,9.3z M5,3.4c-0.7,0-1.2,0.4-1.5,1h0c0,0,0,0,0,0
	c0,0,0,0.1,0,0.1c0,0,0,0,0,0.1c0,0,0,0.1,0,0.1c0,0,0,0,0,0.1c0,0,0,0.1,0,0.1c0,0,0,0,0,0c0,0.1,0,0.1,0,0.2
	c0,0.9,0.7,1.6,1.6,1.6c0.9,0,1.6-0.7,1.6-1.6c0-0.1,0-0.1,0-0.2c0,0,0,0,0,0c0,0,0-0.1,0-0.1c0,0,0,0,0-0.1c0,0,0-0.1,0-0.1
	c0,0,0,0,0-0.1c0,0,0-0.1,0-0.1c0,0,0,0,0,0h0C6.2,3.7,5.7,3.4,5,3.4z M8.3,2.1c0-0.2-0.2-0.4-0.4-0.4H7c-0.2,0-0.4,0.2-0.4,0.4V3
	c0,0.2,0.2,0.4,0.4,0.4h0.8c0.2,0,0.4-0.2,0.4-0.4V2.1z M8.3,4.3H7.5C7.6,4.5,7.6,4.8,7.6,5c0,1.4-1.2,2.6-2.6,2.6S2.4,6.4,2.4,5
	c0-0.2,0-0.5,0.1-0.7H1.7v3.6c0,0.2,0.2,0.4,0.4,0.4h5.7c0.2,0,0.4-0.2,0.4-0.4V4.3z"/>
</svg>
