<?xml version="1.0" encoding="utf-8"?>
<!-- Generator: Adobe Illustrator 18.1.1, SVG Export Plug-In . SVG Version: 6.00 Build 0)  -->
<!DOCTYPE svg PUBLIC "-//W3C//DTD SVG 1.1//EN" "http://www.w3.org/Graphics/SVG/1.1/DTD/svg11.dtd">
<svg version="1.1" id="Layer_1" xmlns="http://www.w3.org/2000/svg" xmlns:xlink="http://www.w3.org/1999/xlink" x="0px" y="0px"
	 viewBox="0 0 32 32" enable-background="new 0 0 32 32" xml:space="preserve">
<path id="linkedin_2_" fill="#193549" d="M24.6,31V20.2c0-2.2-0.6-4.4-3.2-4.4s-3.7,2.2-3.7,4.4V31h-6.9V11.4h6.9V14
	c1.8-2.3,3.4-3.2,6.2-3.2s7.6,1.4,7.6,9.1V31H24.6z M4.4,8.4c-2.2,0-3.9-1.6-3.9-3.5c0-1.9,1.8-3.4,3.9-3.4S8.2,3,8.2,4.9
	C8.2,6.9,6.5,8.4,4.4,8.4z M7.8,31H0.9V11.4h6.9V31z"/>
</svg>
