<?xml version="1.0" encoding="utf-8"?>
<!-- Generator: Adobe Illustrator 18.1.0, SVG Export Plug-In . SVG Version: 6.00 Build 0)  -->
<!DOCTYPE svg PUBLIC "-//W3C//DTD SVG 1.1//EN" "http://www.w3.org/Graphics/SVG/1.1/DTD/svg11.dtd">
<svg version="1.1" id="Layer_1" xmlns="http://www.w3.org/2000/svg" xmlns:xlink="http://www.w3.org/1999/xlink" x="0px" y="0px"
	 viewBox="0 0 64 64" enable-background="new 0 0 64 64" xml:space="preserve">
<g>
	<g>
		<path fill="#00B3B8" d="M30.7,40.2c-0.1,0-6.7-11.3-6.8-11.4c-1.4-3-2.5-6.1-0.2-7.5L14.1,5.1c-2.5,1.8-9.6,12,3.7,34.9
			C31.7,64.2,45,63.2,47.6,61.5l-9.4-15.9C36,47,34.1,44.9,30.7,40.2z M54,55.4L54,55.4L46.7,43c-0.6-1-1.8-1.3-2.8-0.7L39.4,45
			l9.4,15.9l4.5-2.6l0,0C54.3,57.6,54.6,56.3,54,55.4z M29.4,17.9L29.4,17.9c1-0.6,1.3-1.9,0.7-2.8l0,0L22.6,2.4
			c-0.6-1-1.8-1.3-2.8-0.7l-4.5,2.6L25,20.6L29.4,17.9z"/>
	</g>
</g>
</svg>
