<?xml version="1.0" encoding="utf-8"?>
<!-- Generator: Adobe Illustrator 18.1.1, SVG Export Plug-In . SVG Version: 6.00 Build 0)  -->
<!DOCTYPE svg PUBLIC "-//W3C//DTD SVG 1.1//EN" "http://www.w3.org/Graphics/SVG/1.1/DTD/svg11.dtd">
<svg version="1.1" id="Layer_1" xmlns="http://www.w3.org/2000/svg" xmlns:xlink="http://www.w3.org/1999/xlink" x="0px" y="0px"
	 viewBox="0 0 32 32" enable-background="new 0 0 32 32" xml:space="preserve">
<g>
	<g>
		<path fill="#193549" d="M15.4,20.1c-0.1,0-3.4-5.6-3.4-5.7c-0.7-1.5-1.2-3.1-0.1-3.8L7.1,2.5C5.8,3.4,2.2,8.6,8.9,20
			c6.9,12.1,13.6,11.6,14.9,10.8l-4.7-8C18,23.5,17,22.5,15.4,20.1z M27,27.7L27,27.7l-3.6-6.2c-0.3-0.5-0.9-0.6-1.4-0.4l-2.2,1.4
			l4.7,8l2.2-1.3l0,0C27.1,28.8,27.3,28.1,27,27.7z M14.7,8.9L14.7,8.9c0.5-0.3,0.6-0.9,0.4-1.4l0,0l-3.8-6.3
			C11,0.7,10.4,0.6,9.9,0.9L7.7,2.2l4.8,8.1L14.7,8.9z"/>
	</g>
</g>
</svg>
