<?xml version="1.0" encoding="utf-8"?>
<!-- Generator: Adobe Illustrator 18.1.1, SVG Export Plug-In . SVG Version: 6.00 Build 0)  -->
<!DOCTYPE svg PUBLIC "-//W3C//DTD SVG 1.1//EN" "http://www.w3.org/Graphics/SVG/1.1/DTD/svg11.dtd">
<svg version="1.1" id="Layer_1" xmlns="http://www.w3.org/2000/svg" xmlns:xlink="http://www.w3.org/1999/xlink" x="0px" y="0px"
	 viewBox="0 0 32 32" enable-background="new 0 0 32 32" xml:space="preserve">
<path id="BOOK_2_2_" fill-rule="evenodd" clip-rule="evenodd" fill="#E1EFFF" d="M30.6,25.6l-14,5.8c-0.2,0.1-0.4,0.1-0.6,0.1
	c-0.2,0-0.4,0-0.6-0.1l-14-5.8c-0.5-0.2-0.9-0.7-0.9-1.3V2c0-0.8,0.6-1.5,1.5-1.5c0.2,0,0.4,0,0.6,0.1l0,0l0,0c0,0,0,0,0,0L16,6.2
	l13.5-5.6c0,0,0,0,0,0l0,0l0,0c0.2-0.1,0.4-0.1,0.6-0.1c0.8,0,1.5,0.6,1.5,1.5v22.3C31.5,24.8,31.1,25.4,30.6,25.6z M14.5,8.7
	L3.4,4.1v19.1l11.1,4.6V8.7z M28.6,4.1L17.5,8.7v19.1l11.1-4.6V4.1z M19.8,10.8l5.3-2.4l0,0c0.2-0.1,0.4-0.1,0.6-0.1
	c0.8,0,1.5,0.6,1.5,1.5c0,0.6-0.3,1.1-0.9,1.3v0L21,13.5l0,0c-0.2,0.1-0.4,0.1-0.6,0.1c-0.8,0-1.5-0.6-1.5-1.5
	C18.9,11.5,19.3,11,19.8,10.8z M19.8,16.1L19.8,16.1l5.3-2.4l0,0c0.2-0.1,0.4-0.1,0.6-0.1c0.8,0,1.5,0.6,1.5,1.5
	c0,0.6-0.3,1.1-0.9,1.3L21,18.8l0,0c-0.2,0.1-0.4,0.1-0.6,0.1c-0.8,0-1.5-0.6-1.5-1.5C18.9,16.9,19.3,16.4,19.8,16.1z M19.8,21.5
	L19.8,21.5l5.3-2.4l0,0c0.2-0.1,0.4-0.1,0.6-0.1c0.8,0,1.5,0.6,1.5,1.5c0,0.6-0.3,1.1-0.9,1.3v0L21,24.1l0,0
	c-0.2,0.1-0.4,0.1-0.6,0.1c-0.8,0-1.5-0.6-1.5-1.5C18.9,22.2,19.3,21.7,19.8,21.5z M6.3,8.3c0.2,0,0.4,0,0.6,0.1v0l5.3,2.4h0
	c0.5,0.2,0.9,0.7,0.9,1.3c0,0.8-0.6,1.5-1.5,1.5c-0.2,0-0.4,0-0.6-0.1l0,0L5.7,11l0,0c-0.5-0.2-0.9-0.7-0.9-1.3
	C4.9,8.9,5.5,8.3,6.3,8.3z M6.3,13.6c0.2,0,0.4,0,0.6,0.1v0l5.3,2.4l0,0c0.5,0.2,0.9,0.7,0.9,1.3c0,0.8-0.6,1.5-1.5,1.5
	c-0.2,0-0.4,0-0.6-0.1l0,0l-5.3-2.4h0c-0.5-0.2-0.9-0.7-0.9-1.3C4.9,14.2,5.5,13.6,6.3,13.6z M6.3,18.9c0.2,0,0.4,0,0.6,0.1v0
	l5.3,2.4l0,0c0.5,0.2,0.9,0.7,0.9,1.3c0,0.8-0.6,1.5-1.5,1.5c-0.2,0-0.4,0-0.6-0.1l0,0l-5.3-2.4l0,0c-0.5-0.2-0.9-0.7-0.9-1.3
	C4.9,19.6,5.5,18.9,6.3,18.9z"/>
</svg>
