<?xml version="1.0" encoding="utf-8"?>
<!-- Generator: Adobe Illustrator 18.1.0, SVG Export Plug-In . SVG Version: 6.00 Build 0)  -->
<!DOCTYPE svg PUBLIC "-//W3C//DTD SVG 1.1//EN" "http://www.w3.org/Graphics/SVG/1.1/DTD/svg11.dtd">
<svg version="1.1" id="Layer_1" xmlns="http://www.w3.org/2000/svg" xmlns:xlink="http://www.w3.org/1999/xlink" x="0px" y="0px"
	 viewBox="0 0 12.8 13.8" enable-background="new 0 0 12.8 13.8" xml:space="preserve">
<path id="tumblr_2_" fill="#FFFFFF" d="M10.5,12.7c-0.5,0.2-0.9,0.4-1.4,0.5c-0.4,0.2-0.9,0.2-1.4,0.2c-0.5,0-0.9,0-1.4-0.2
	c-0.4-0.2-0.9-0.4-1.1-0.7c-0.4-0.4-0.5-0.5-0.7-0.9c-0.2-0.4-0.2-0.7-0.2-1.4V5.7H2.4V3.9c0.5-0.2,1.1-0.4,1.4-0.7
	C4.2,2.9,4.5,2.5,4.7,2c0.2-0.4,0.4-1.1,0.5-1.6H7v3h3v2.3H7v3.4c0,0.7,0,1.3,0,1.4c0,0.2,0.4,0.4,0.5,0.5c0.4,0.2,0.5,0.2,0.9,0.2
	c0.7,0,1.3-0.2,2-0.7V12.7z"/>
</svg>
