<?xml version="1.0" encoding="utf-8"?>
<!-- Generator: Adobe Illustrator 18.1.1, SVG Export Plug-In . SVG Version: 6.00 Build 0)  -->
<!DOCTYPE svg PUBLIC "-//W3C//DTD SVG 1.1//EN" "http://www.w3.org/Graphics/SVG/1.1/DTD/svg11.dtd">
<svg version="1.1" id="Layer_1" xmlns="http://www.w3.org/2000/svg" xmlns:xlink="http://www.w3.org/1999/xlink" x="0px" y="0px"
	 viewBox="0 0 32 32" enable-background="new 0 0 32 32" xml:space="preserve">
<path id="twitter_2_" fill="#193549" d="M21.5,3.7c2.4,0,3.7,0.9,4.9,2c1-0.1,2.4-0.7,3.2-1c0.2-0.2,0.5-0.3,0.8-0.4
	c-0.5,1.2-1,2.2-2,2.9c-0.2,0.2-0.4,0.4-0.7,0.5l0,0c1.4,0,2.5-0.6,3.5-0.9l0,0c-0.5,0.9-1.3,1.8-2.1,2.4c-0.3,0.2-0.6,0.5-1,0.8
	c0,1.4,0,2.8-0.3,4c-1.5,7-5.6,11.7-12.1,13.8c-2.4,0.8-6.1,1-8.8,0.4c-1.3-0.4-2.5-0.7-3.7-1.2c-0.6-0.2-1.2-0.5-1.8-0.9
	c-0.2-0.1-0.4-0.2-0.6-0.4c0.6,0,1.3,0.2,2,0.1c0.6-0.1,1.2,0,1.8-0.2C6,25.1,7.3,24.6,8.4,24c0.5-0.3,1.3-0.6,1.7-1.1
	c-0.7,0-1.4-0.1-1.9-0.4c-2-0.7-3.2-2-3.9-4c0.6,0,2.3,0.2,2.8-0.1c-0.8,0-1.5-0.5-2.1-0.8C3.3,16.7,2,15,2,12.4
	c0.2,0.1,0.4,0.2,0.6,0.3C3.1,12.8,3.5,12.9,4,13c0.2,0.1,0.6,0.1,0.8,0.1c0,0,0,0-0.1,0c-0.3-0.4-0.8-0.6-1.1-1
	c-1-1.3-2-3.2-1.4-5.7C2.5,5.9,2.7,5.3,3,4.9c0,0,0,0,0,0c0.1,0.2,0.4,0.4,0.5,0.7c0.6,0.7,1.2,1.2,1.8,1.8C7.7,9,9.7,10.1,13,10.9
	c0.9,0.2,1.8,0.4,2.8,0.4c-0.3-0.8-0.2-2.2,0.1-2.9c0.5-2,1.8-3.4,3.5-4.2c0.4-0.2,0.9-0.3,1.4-0.4C21,3.8,21.2,3.8,21.5,3.7z"/>
</svg>
