<?xml version="1.0" encoding="utf-8"?>
<!-- Generator: Adobe Illustrator 18.1.0, SVG Export Plug-In . SVG Version: 6.00 Build 0)  -->
<!DOCTYPE svg PUBLIC "-//W3C//DTD SVG 1.1//EN" "http://www.w3.org/Graphics/SVG/1.1/DTD/svg11.dtd">
<svg version="1.1" id="Layer_1" xmlns="http://www.w3.org/2000/svg" xmlns:xlink="http://www.w3.org/1999/xlink" x="0px" y="0px"
	 viewBox="0 0 64 64" enable-background="new 0 0 64 64" xml:space="preserve">
<path id="twitter_2_" fill="#00B3B8" d="M42.9,7.4c4.8-0.1,7.4,1.7,9.8,3.9c2.1-0.2,4.8-1.3,6.4-2.1c0.5-0.3,1-0.6,1.5-0.8
	c-0.9,2.5-2.1,4.4-4,5.8c-0.4,0.3-0.8,0.8-1.4,1l0,0c2.7,0,4.9-1.2,7-1.9l0,0c-1.1,1.8-2.6,3.5-4.2,4.8c-0.6,0.5-1.3,1-1.9,1.5
	c0,2.9,0,5.6-0.6,8c-3.1,14-11.3,23.4-24.3,27.5c-4.7,1.5-12.2,2.1-17.6,0.7c-2.7-0.7-5-1.4-7.3-2.4c-1.2-0.5-2.4-1.1-3.5-1.8
	c-0.4-0.2-0.7-0.4-1.1-0.7c1.2,0,2.6,0.4,4,0.2c1.2-0.2,2.4-0.1,3.5-0.4c2.8-0.6,5.3-1.4,7.5-2.7c1-0.6,2.6-1.3,3.4-2.2
	c-1.4,0-2.7-0.3-3.7-0.7c-4-1.4-6.4-4-7.9-7.9c1.2,0.1,4.7,0.5,5.5-0.2c-1.5-0.1-3-1-4.1-1.6C6.7,33.4,4,30,4.1,24.8
	c0.4,0.2,0.8,0.4,1.3,0.6C6.2,25.6,7,25.8,8,26c0.4,0.1,1.2,0.3,1.7,0.2c0,0,0,0-0.1,0C9,25.4,8,25,7.4,24.2
	c-2.1-2.6-4-6.5-2.8-11.3c0.3-1.2,0.8-2.3,1.3-3.2c0,0,0,0,0.1,0c0.2,0.5,0.8,0.9,1.1,1.3c1.1,1.3,2.4,2.5,3.7,3.5
	c4.5,3.5,8.6,5.7,15.2,7.3c1.7,0.4,3.6,0.7,5.6,0.7c-0.6-1.6-0.4-4.3,0.1-5.8c1.1-4,3.5-6.8,7-8.3c0.8-0.4,1.8-0.6,2.8-0.8
	C41.9,7.5,42.4,7.5,42.9,7.4z"/>
</svg>
